<svg width="28" height="28" viewBox="0 0 28 28" fill="none" xmlns="http://www.w3.org/2000/svg">
<g id="bill">
<g id="f">
<g id="Group">
<path id="Vector" d="M20.7784 3.65163C20.1134 3.30163 19.3201 3.34829 18.6901 3.76829L17.6517 4.47996C17.5584 4.53829 17.4417 4.54996 17.3484 4.47996L15.1434 2.97496C14.4551 2.49663 13.5567 2.49663 12.8684 2.97496L10.6634 4.47996C10.5701 4.53829 10.4534 4.53829 10.3601 4.47996L9.32172 3.76829C8.70338 3.34829 7.89838 3.30163 7.23338 3.65163C6.55672 4.01329 6.13672 4.71329 6.13672 5.48329V22.505C6.13672 23.275 6.55672 23.9866 7.23338 24.3366C7.89838 24.6866 8.69172 24.64 9.32172 24.22L10.3601 23.5083C10.4534 23.45 10.5701 23.4383 10.6634 23.5083L12.8684 25.0133C13.2184 25.2466 13.6151 25.3633 14.0117 25.3633C14.4084 25.3633 14.8051 25.2466 15.1551 25.0133L17.3601 23.5083C17.4534 23.45 17.5701 23.45 17.6634 23.5083L18.7017 24.22C19.3201 24.64 20.1251 24.6866 20.7901 24.3366C21.4667 23.975 21.8867 23.275 21.8867 22.505V5.49496C21.8867 4.72496 21.4667 4.01329 20.7901 3.66329L20.7784 3.65163ZM20.1251 22.505C20.1251 22.68 20.0084 22.7616 19.9617 22.7966C19.8917 22.8316 19.7984 22.855 19.6817 22.785L18.6434 22.0733C17.9551 21.595 17.0567 21.595 16.3684 22.0733L14.1634 23.5783C14.0701 23.6366 13.9534 23.6483 13.8601 23.5783L11.6551 22.0733C11.3051 21.84 10.9084 21.7233 10.5117 21.7233C10.1151 21.7233 9.71838 21.84 9.36838 22.0733L8.33005 22.785C8.21338 22.8666 8.12005 22.8316 8.05005 22.7966C8.00339 22.7733 7.88672 22.6916 7.88672 22.505V5.49496C7.88672 5.31996 8.00339 5.23829 8.05005 5.20329C8.12005 5.16829 8.21338 5.14496 8.33005 5.21496L9.36838 5.92663C10.0567 6.40496 10.9551 6.40496 11.6434 5.92663L13.8484 4.42163C13.9417 4.36329 14.0584 4.35163 14.1517 4.42163L16.3567 5.92663C17.0451 6.40496 17.9434 6.40496 18.6317 5.92663L19.6701 5.21496C19.7867 5.13329 19.8917 5.16829 19.9501 5.20329C19.9967 5.22663 20.1134 5.30829 20.1134 5.49496V22.5166L20.1251 22.505Z" fill="black"/>
<path id="Vector_2" d="M16.3333 13.125H10.5C10.0217 13.125 9.625 13.5217 9.625 14C9.625 14.4783 10.0217 14.875 10.5 14.875H16.3333C16.8117 14.875 17.2083 14.4783 17.2083 14C17.2083 13.5217 16.8117 13.125 16.3333 13.125Z" fill="black"/>
<path id="Vector_3" d="M17.5 9.625H10.5C10.0217 9.625 9.625 10.0217 9.625 10.5C9.625 10.9783 10.0217 11.375 10.5 11.375H17.5C17.9783 11.375 18.375 10.9783 18.375 10.5C18.375 10.0217 17.9783 9.625 17.5 9.625Z" fill="black"/>
<path id="Vector_4" d="M14 16.625H10.5C10.0217 16.625 9.625 17.0217 9.625 17.5C9.625 17.9783 10.0217 18.375 10.5 18.375H14C14.4783 18.375 14.875 17.9783 14.875 17.5C14.875 17.0217 14.4783 16.625 14 16.625Z" fill="black"/>
</g>
</g>
</g>
</svg>
