<svg width="24" height="24" viewBox="0 0 24 24" fill="none" xmlns="http://www.w3.org/2000/svg">
<path fill-rule="evenodd" clip-rule="evenodd" d="M12 0C18.6275 0 24 5.3725 24 12C24 18.6275 18.6275 24 12 24C5.3725 24 0 18.6275 0 12C0 5.3725 5.3725 0 12 0ZM12 2C6.477 2 2 6.477 2 12C2 17.523 6.477 22 12 22C17.523 22 22 17.523 22 12C22 6.477 17.523 2 12 2ZM10.7135 5.5715V7.0875H11.96V5.5715H13.5185V7.0875H13.1445C15.0415 7.0875 16.2315 8.0345 16.2315 9.5395C16.2315 10.6155 15.4055 11.5145 14.3345 11.6715V11.726C15.7065 11.828 16.7145 12.802 16.7145 14.103C16.7145 15.777 15.4625 16.845 13.428 16.9125H13.518V18.4285H11.96V16.916H10.7135V18.4285H9.1555V16.916H8.749V16.9125H7.285V15.396H8.7485V8.604H7.285V7.0875H9.155V5.5715H10.7135ZM12.5625 12.4285H10.7145V15.4285H12.6135C13.8845 15.4285 14.5715 14.8985 14.5715 13.9105C14.5715 12.944 13.863 12.4285 12.5625 12.4285ZM12.5235 8.5715H10.7145V11.143H12.2975C13.4715 11.143 14.1425 10.656 14.1425 9.8195C14.1425 9.024 13.552 8.5715 12.5235 8.5715Z" fill="#94969C"/>
</svg>
