<svg width="56" height="56" viewBox="0 0 56 56" fill="none" xmlns="http://www.w3.org/2000/svg">
<g clip-path="url(#clip0_39_5216)">
<g clip-path="url(#clip1_39_5216)">
<path d="M15.5 45C14.4 45 13.458 44.608 12.674 43.824C11.89 43.04 11.4987 42.0987 11.5 41C11.5 39.9 11.892 38.958 12.676 38.174C13.46 37.39 14.4013 36.9987 15.5 37C16.6 37 17.542 37.392 18.326 38.176C19.11 38.96 19.5013 39.9013 19.5 41C19.5 42.1 19.108 43.042 18.324 43.826C17.54 44.61 16.5987 45.0013 15.5 45ZM39.5 45C39.5 41.1333 38.7667 37.508 37.3 34.124C35.8333 30.74 33.8247 27.7733 31.274 25.224C28.726 22.6747 25.76 20.6667 22.376 19.2C18.992 17.7333 15.3667 17 11.5 17V11C16.2 11 20.6167 11.892 24.75 13.676C28.8833 15.46 32.4833 17.8847 35.55 20.95C38.6167 24.0167 41.042 27.6167 42.826 31.75C44.61 35.8833 45.5013 40.3 45.5 45H39.5ZM27.5 45C27.5 40.5667 25.942 36.7913 22.826 33.674C19.71 30.5573 15.9347 28.9993 11.5 29V23C14.5667 23 17.4333 23.5753 20.1 24.726C22.7667 25.8767 25.092 27.4433 27.076 29.426C29.06 31.4087 30.6267 33.7333 31.776 36.4C32.9253 39.0667 33.5 41.9333 33.5 45H27.5Z" fill="#00CBF7"/>
</g>
</g>
<defs>
<clipPath id="clip0_39_5216">
<rect width="56" height="56" fill="white" transform="translate(0.5)"/>
</clipPath>
<clipPath id="clip1_39_5216">
<rect width="56" height="56" fill="white" transform="translate(0.5)"/>
</clipPath>
</defs>
</svg>
