<svg width="24" height="24" viewBox="0 0 24 24" fill="none" xmlns="http://www.w3.org/2000/svg">
<path fill-rule="evenodd" clip-rule="evenodd" d="M12.5942 23.258L12.5822 23.26L12.5112 23.295L12.4912 23.299L12.4772 23.295L12.4062 23.259C12.3955 23.2563 12.3875 23.2583 12.3822 23.265L12.3782 23.275L12.3612 23.703L12.3662 23.723L12.3762 23.736L12.4802 23.81L12.4952 23.814L12.5072 23.81L12.6112 23.736L12.6232 23.72L12.6272 23.703L12.6102 23.276C12.6075 23.2653 12.6022 23.2593 12.5942 23.258ZM12.8582 23.145L12.8442 23.147L12.6602 23.24L12.6502 23.25L12.6472 23.261L12.6652 23.691L12.6702 23.703L12.6782 23.711L12.8792 23.803C12.8918 23.8063 12.9015 23.8037 12.9082 23.795L12.9122 23.781L12.8782 23.167C12.8748 23.1543 12.8682 23.147 12.8582 23.145ZM12.1432 23.147C12.1388 23.1443 12.1335 23.1435 12.1285 23.1446C12.1234 23.1457 12.119 23.1487 12.1162 23.153L12.1102 23.167L12.0762 23.781C12.0768 23.793 12.0825 23.801 12.0932 23.805L12.1082 23.803L12.3092 23.71L12.3192 23.702L12.3222 23.691L12.3402 23.261L12.3372 23.249L12.3272 23.239L12.1432 23.147Z" fill="#FFD700"/>
<path fill-rule="evenodd" clip-rule="evenodd" d="M12 2C17.523 2 22 6.477 22 12C22 17.523 17.523 22 12 22C6.477 22 2 17.523 2 12C2 6.477 6.477 2 12 2ZM4.071 13.071C4.30601 14.8071 5.10416 16.4182 6.34298 17.657C7.5818 18.8958 9.19287 19.694 10.929 19.929C10.6941 18.1925 9.89594 16.5811 8.6569 15.3421C7.41786 14.1031 5.80646 13.3049 4.07 13.07M19.928 13.07C18.1919 13.305 16.5808 14.1032 15.342 15.342C14.1032 16.5808 13.305 18.1919 13.07 19.928C14.8061 19.693 16.4172 18.8948 17.656 17.656C18.8948 16.4172 19.693 14.8061 19.928 13.07ZM12 7.364C11.017 9.38457 9.38457 11.017 7.364 12C9.38457 12.983 11.017 14.6154 12 16.636C12.983 14.6154 14.6154 12.983 16.636 12C14.6154 11.017 12.983 9.38457 12 7.364ZM10.929 4.071C9.19261 4.30602 7.58129 5.10427 6.34228 6.34328C5.10327 7.58229 4.30502 9.19361 4.07 10.93C5.80678 10.6953 7.41853 9.89704 8.65778 8.65778C9.89704 7.41853 10.6953 5.80678 10.93 4.07M13.072 4.07C13.307 5.80613 14.1052 7.4172 15.344 8.65602C16.5828 9.89484 18.1939 10.693 19.93 10.928C19.6949 9.19158 18.8965 7.58029 17.6572 6.34143C16.418 5.10257 14.8065 4.3046 13.07 4.07" fill="#FFD700"/>
</svg>
