<svg width="28" height="28" viewBox="0 0 28 28" fill="none" xmlns="http://www.w3.org/2000/svg">
<g id="contact">
<g id="i">
<g id="Group">
<path id="Vector" d="M22.1667 2.625H8.16667C6.39333 2.625 4.95833 4.06 4.95833 5.83333V7.29167H3.5C3.02167 7.29167 2.625 7.68833 2.625 8.16667C2.625 8.645 3.02167 9.04167 3.5 9.04167H4.95833V13.125H3.5C3.02167 13.125 2.625 13.5217 2.625 14C2.625 14.4783 3.02167 14.875 3.5 14.875H4.95833V18.9583H3.5C3.02167 18.9583 2.625 19.355 2.625 19.8333C2.625 20.3117 3.02167 20.7083 3.5 20.7083H4.95833V22.1667C4.95833 23.94 6.39333 25.375 8.16667 25.375H22.1667C23.94 25.375 25.375 23.94 25.375 22.1667V5.83333C25.375 4.06 23.94 2.625 22.1667 2.625ZM23.625 22.1667C23.625 22.9717 22.9717 23.625 22.1667 23.625H8.16667C7.36167 23.625 6.70833 22.9717 6.70833 22.1667V20.7083H7C7.47833 20.7083 7.875 20.3117 7.875 19.8333C7.875 19.355 7.47833 18.9583 7 18.9583H6.70833V14.875H7C7.47833 14.875 7.875 14.4783 7.875 14C7.875 13.5217 7.47833 13.125 7 13.125H6.70833V9.04167H7C7.47833 9.04167 7.875 8.645 7.875 8.16667C7.875 7.68833 7.47833 7.29167 7 7.29167H6.70833V5.83333C6.70833 5.02833 7.36167 4.375 8.16667 4.375H22.1667C22.9717 4.375 23.625 5.02833 23.625 5.83333V22.1667Z" fill="black"/>
<path id="Vector_2" d="M15.1673 13.7083C16.9407 13.7083 18.3757 12.2733 18.3757 10.5C18.3757 8.72663 16.9407 7.29163 15.1673 7.29163C13.394 7.29163 11.959 8.72663 11.959 10.5C11.959 12.2733 13.394 13.7083 15.1673 13.7083ZM15.1673 9.04163C15.9723 9.04163 16.6257 9.69496 16.6257 10.5C16.6257 11.305 15.9723 11.9583 15.1673 11.9583C14.3623 11.9583 13.709 11.305 13.709 10.5C13.709 9.69496 14.3623 9.04163 15.1673 9.04163Z" fill="black"/>
<path id="Vector_3" d="M16.3327 15.4584H13.9993C12.226 15.4584 10.791 16.8934 10.791 18.6667V19.8334C10.791 20.3117 11.1877 20.7084 11.666 20.7084C12.1443 20.7084 12.541 20.3117 12.541 19.8334V18.6667C12.541 17.8617 13.1943 17.2084 13.9993 17.2084H16.3327C17.1377 17.2084 17.791 17.8617 17.791 18.6667V19.8334C17.791 20.3117 18.1877 20.7084 18.666 20.7084C19.1443 20.7084 19.541 20.3117 19.541 19.8334V18.6667C19.541 16.8934 18.106 15.4584 16.3327 15.4584Z" fill="black"/>
</g>
</g>
</g>
</svg>
