<svg width="24" height="24" viewBox="0 0 24 24" fill="none" xmlns="http://www.w3.org/2000/svg">
<path d="M1 12C1 13.4445 1.28452 14.8749 1.83733 16.2095C2.39013 17.5441 3.20038 18.7567 4.22183 19.7782C5.24327 20.7996 6.4559 21.6099 7.79048 22.1627C9.12506 22.7155 10.5555 23 12 23C13.4445 23 14.8749 22.7155 16.2095 22.1627C17.5441 21.6099 18.7567 20.7996 19.7782 19.7782C20.7996 18.7567 21.6099 17.5441 22.1627 16.2095C22.7155 14.8749 23 13.4445 23 12C23 10.5555 22.7155 9.12506 22.1627 7.79048C21.6099 6.4559 20.7996 5.24327 19.7782 4.22183C18.7567 3.20038 17.5441 2.39013 16.2095 1.83733C14.8749 1.28452 13.4445 1 12 1C10.5555 1 9.12506 1.28452 7.79048 1.83733C6.4559 2.39013 5.24327 3.20038 4.22183 4.22183C3.20038 5.24327 2.39013 6.4559 1.83733 7.79048C1.28452 9.12506 1 10.5555 1 12Z" stroke="#94969C" stroke-width="2" stroke-linecap="round" stroke-linejoin="round"/>
<path d="M15.4219 8.3333C15.2005 7.94923 14.8788 7.6326 14.4913 7.41731C14.1037 7.20201 13.665 7.09616 13.2219 7.11108H10.7775C10.1291 7.11108 9.50739 7.36862 9.04897 7.82704C8.59055 8.28546 8.33301 8.90721 8.33301 9.55552C8.33301 10.2038 8.59055 10.8256 9.04897 11.284C9.50739 11.7424 10.1291 12 10.7775 12H13.2219C13.8702 12 14.492 12.2575 14.9504 12.7159C15.4088 13.1744 15.6663 13.7961 15.6663 14.4444C15.6663 15.0927 15.4088 15.7145 14.9504 16.1729C14.492 16.6313 13.8702 16.8889 13.2219 16.8889H10.7775C10.3344 16.9038 9.8956 16.7979 9.50807 16.5826C9.12055 16.3673 8.79886 16.0507 8.57745 15.6666M11.9997 5.88885V18.1111" stroke="#94969C" stroke-width="2" stroke-linecap="round" stroke-linejoin="round"/>
</svg>
