<svg width="28" height="28" viewBox="0 0 28 28" fill="none" xmlns="http://www.w3.org/2000/svg">
<g id="investment">
<g id="d">
<g id="Group">
<path id="Vector" d="M13.9993 16.0417C17.6977 16.0417 20.7077 13.0317 20.7077 9.33333C20.7077 5.635 17.6977 2.625 13.9993 2.625C10.301 2.625 7.29102 5.635 7.29102 9.33333C7.29102 13.0317 10.301 16.0417 13.9993 16.0417ZM13.9993 4.375C16.7293 4.375 18.9577 6.60333 18.9577 9.33333C18.9577 12.0633 16.7293 14.2917 13.9993 14.2917C11.2693 14.2917 9.04102 12.0633 9.04102 9.33333C9.04102 6.60333 11.2693 4.375 13.9993 4.375Z" fill="black"/>
<path id="Vector_2" d="M22.0034 17.4066C18.69 15.96 15.4234 16.7183 14 18.27C12.5884 16.7183 9.31004 15.96 5.99671 17.4066C5.60004 17.5816 5.39004 18.0133 5.50671 18.4333C6.47504 22.0266 9.27504 24.1616 11.3984 24.1616C11.4684 24.1616 11.5267 24.1616 11.5967 24.1616C12.495 24.1033 13.3234 23.66 14 22.9133C14.6767 23.66 15.505 24.1033 16.4034 24.1616C16.4617 24.1616 16.5317 24.1616 16.6017 24.1616C18.725 24.1616 21.525 22.0266 22.4934 18.4333C22.61 18.0133 22.4 17.5816 22.0034 17.4066ZM12.9967 21.3966C12.6817 21.8633 12.1684 22.3766 11.4917 22.4116C10.3717 22.4583 8.38837 21.21 7.44337 18.725C9.97504 17.9083 12.1917 18.6433 12.845 19.5766C13.2417 20.1366 13.1484 20.8483 12.9967 21.385V21.3966ZM16.52 22.4116C15.8434 22.365 15.33 21.8516 15.015 21.3966C14.8517 20.86 14.77 20.1366 15.1667 19.5883C15.82 18.6666 18.0367 17.92 20.5684 18.7366C19.6234 21.2216 17.71 22.4583 16.52 22.4233V22.4116Z" fill="black"/>
<path id="Vector_3" d="M12.834 10.2084H15.1673C15.6457 10.2084 16.0423 9.81171 16.0423 9.33337C16.0423 8.85504 15.6457 8.45837 15.1673 8.45837H12.834C12.3557 8.45837 11.959 8.85504 11.959 9.33337C11.959 9.81171 12.3557 10.2084 12.834 10.2084Z" fill="black"/>
</g>
</g>
</g>
</svg>
