<svg width="120" height="32" viewBox="0 0 120 32" fill="none" xmlns="http://www.w3.org/2000/svg">
<g clip-path="url(#clip0_1200_561)">
<path d="M32.3849 25.3238C32.1454 25.3238 31.9336 25.2593 31.7495 25.1304C31.5653 25.0015 31.4364 24.8357 31.3627 24.6331L27.0531 11.7042C26.9426 11.2438 26.9518 10.8846 27.0807 10.6268C27.2096 10.3505 27.4675 10.2124 27.8542 10.2124C28.0936 10.2124 28.3054 10.2769 28.4896 10.4058C28.6738 10.5347 28.8119 10.7373 28.904 11.0136L32.744 22.7546H32.1362L35.7 11.0412C35.7736 10.8018 35.8934 10.6084 36.0591 10.461C36.2433 10.2953 36.4735 10.2124 36.7498 10.2124C37.026 10.2124 37.247 10.2861 37.4128 10.4334C37.597 10.5807 37.7259 10.7833 37.7995 11.0412L41.1975 22.4783H40.7279L44.485 11.0136C44.6692 10.4795 45.0099 10.2124 45.5072 10.2124C45.9123 10.2124 46.1886 10.3689 46.3359 10.682C46.4833 10.9767 46.4833 11.3174 46.3359 11.7042L42.0263 24.6331C41.9526 24.8357 41.8237 25.0015 41.6395 25.1304C41.4738 25.2593 41.2712 25.3238 41.0318 25.3238C40.7923 25.3238 40.5713 25.2593 40.3687 25.1304C40.1846 25.0015 40.0649 24.8357 40.0096 24.6331L36.5287 13.0855H36.8603L33.3794 24.6331C33.3057 24.8541 33.1768 25.0291 32.9926 25.158C32.8085 25.2685 32.6059 25.3238 32.3849 25.3238Z" fill="#01B7E8"/>
<path d="M55.5293 25.4618C54.1109 25.4618 52.8404 25.1303 51.7166 24.4673C50.5932 23.7859 49.7002 22.865 49.0372 21.7047C48.3923 20.5444 48.0703 19.2368 48.0703 17.7818C48.0703 16.3085 48.4015 14.9916 49.0646 13.8313C49.746 12.6711 50.6671 11.7594 51.8274 11.0964C52.9877 10.4149 54.2953 10.0742 55.7503 10.0742C57.2053 10.0742 58.5034 10.4149 59.6456 11.0964C60.8056 11.7594 61.7172 12.6711 62.3802 13.8313C63.0617 14.9916 63.4119 16.3085 63.4303 17.7818L62.5736 18.4449C62.5736 19.7709 62.2605 20.968 61.6346 22.0362C61.0269 23.086 60.1889 23.924 59.1204 24.5502C58.0709 25.158 56.8735 25.4618 55.5293 25.4618ZM55.7503 23.528C56.8185 23.528 57.767 23.2794 58.5958 22.7821C59.443 22.2849 60.1057 21.6034 60.5846 20.7378C61.0818 19.8538 61.3307 18.8685 61.3307 17.7818C61.3307 16.6768 61.0818 15.6915 60.5846 14.8259C60.1057 13.9603 59.443 13.2788 58.5958 12.7816C57.767 12.2659 56.8185 12.008 55.7503 12.008C54.7005 12.008 53.752 12.2659 52.9048 12.7816C52.0576 13.2788 51.3851 13.9603 50.8879 14.8259C50.3906 15.6915 50.142 16.6768 50.142 17.7818C50.142 18.8685 50.3906 19.8538 50.8879 20.7378C51.3851 21.6034 52.0576 22.2849 52.9048 22.7821C53.752 23.2794 54.7005 23.528 55.7503 23.528ZM62.3529 25.3237C62.0398 25.3237 61.7817 25.2316 61.5794 25.0475C61.3768 24.8449 61.2755 24.587 61.2755 24.2739V19.5499L61.8004 17.3675L63.4303 17.7818V24.2739C63.4303 24.587 63.329 24.8449 63.1261 25.0475C62.9238 25.2316 62.666 25.3237 62.3529 25.3237Z" fill="#01B7E8"/>
<path d="M68.6438 31.7882C68.3123 31.7882 68.0453 31.6869 67.8427 31.4843C67.6585 31.3001 67.5664 31.0423 67.5664 30.7108V17.6713C67.5848 16.2348 67.9255 14.9456 68.5886 13.8037C69.27 12.6434 70.1817 11.7318 71.3235 11.0688C72.4838 10.4057 73.7822 10.0742 75.2188 10.0742C76.6922 10.0742 78.009 10.4149 79.1693 11.0964C80.3296 11.7594 81.2412 12.6711 81.9042 13.8313C82.5857 14.9916 82.9264 16.3085 82.9264 17.7818C82.9264 19.2368 82.5949 20.5444 81.9319 21.7047C81.2873 22.865 80.4032 23.7859 79.2798 24.4673C78.1563 25.1303 76.8855 25.4618 75.4674 25.4618C74.2335 25.4618 73.11 25.204 72.0971 24.6883C71.1025 24.1542 70.3014 23.4544 69.6936 22.5888V30.7108C69.6936 31.0423 69.5923 31.3001 69.3897 31.4843C69.2055 31.6869 68.9569 31.7882 68.6438 31.7882ZM75.2188 23.528C76.287 23.528 77.2447 23.2794 78.0919 22.7821C78.9391 22.2849 79.6021 21.6034 80.0809 20.7378C80.5782 19.8538 80.8268 18.8685 80.8268 17.7818C80.8268 16.6768 80.5782 15.6915 80.0809 14.8259C79.6021 13.9603 78.9391 13.2788 78.0919 12.7816C77.2447 12.2659 76.287 12.008 75.2188 12.008C74.169 12.008 73.2205 12.2659 72.3733 12.7816C71.5261 13.2788 70.8631 13.9603 70.3842 14.8259C69.9054 15.6915 69.666 16.6768 69.666 17.7818C69.666 18.8685 69.9054 19.8538 70.3842 20.7378C70.8631 21.6034 71.5261 22.2849 72.3733 22.7821C73.2205 23.2794 74.169 23.528 75.2188 23.528Z" fill="#01B7E8"/>
<path d="M94.0077 25.6C92.829 25.6 91.7332 25.4343 90.7202 25.1028C89.7257 24.7528 88.8601 24.2648 88.1234 23.6386C87.3867 23.0124 86.8249 22.2849 86.4382 21.4561C86.2908 21.1615 86.2816 20.8944 86.4106 20.655C86.5579 20.3971 86.7973 20.2222 87.1288 20.1301C87.3867 20.0564 87.6353 20.0841 87.8747 20.213C88.1326 20.3419 88.326 20.5353 88.4549 20.7931C88.7311 21.3272 89.1363 21.8061 89.6704 22.2297C90.2045 22.6533 90.8399 22.9848 91.5766 23.2242C92.3133 23.4452 93.1236 23.5557 94.0077 23.5557C94.9838 23.5557 95.8494 23.3992 96.6045 23.0861C97.3596 22.7546 97.949 22.2849 98.3726 21.6771C98.8146 21.051 99.0356 20.2959 99.0356 19.4118C99.0356 18.2884 98.6212 17.3215 97.7924 16.5111C96.9636 15.7007 95.6652 15.1851 93.8972 14.9641C91.7424 14.7062 90.0572 14.0432 88.8416 12.975C87.6261 11.8884 87.0183 10.5623 87.0183 8.99686C87.0183 7.87341 87.313 6.89729 87.9024 6.06851C88.5101 5.23974 89.3389 4.60434 90.3887 4.16233C91.4385 3.7019 92.6448 3.47168 94.0077 3.47168C95.0206 3.47168 95.9415 3.63744 96.7703 3.96895C97.599 4.28204 98.3173 4.70564 98.9251 5.23974C99.5513 5.75542 100.058 6.32636 100.445 6.95254C100.629 7.24722 100.684 7.53269 100.61 7.80895C100.555 8.08521 100.398 8.297 100.141 8.44434C99.8644 8.57326 99.5789 8.59168 99.2842 8.49959C99.008 8.40751 98.7962 8.23254 98.6488 7.9747C98.3726 7.5511 98.0226 7.15513 97.599 6.78679C97.1939 6.40002 96.6966 6.09614 96.1073 5.87513C95.5179 5.65413 94.8088 5.53441 93.9801 5.516C92.5251 5.516 91.3556 5.82909 90.4716 6.45528C89.5875 7.06305 89.1455 7.95628 89.1455 9.13499C89.1455 9.76118 89.3113 10.3413 89.6428 10.8754C89.9743 11.3911 90.5176 11.8423 91.2727 12.2291C92.0462 12.5974 93.0776 12.8737 94.3668 13.0579C96.669 13.3894 98.3726 14.0984 99.4776 15.1851C100.601 16.2533 101.163 17.653 101.163 19.3842C101.163 20.3787 100.979 21.2628 100.61 22.0363C100.26 22.8098 99.7539 23.4636 99.0908 23.9977C98.4462 24.5134 97.6819 24.9094 96.7979 25.1856C95.9323 25.4619 95.0022 25.6 94.0077 25.6Z" fill="#01B7E8"/>
<path d="M112.27 25.4618C110.796 25.4618 109.48 25.1303 108.319 24.4673C107.159 23.8043 106.247 22.8926 105.584 21.7323C104.921 20.5721 104.59 19.2552 104.59 17.7818C104.59 16.29 104.921 14.964 105.584 13.8037C106.247 12.6434 107.159 11.7318 108.319 11.0688C109.48 10.4057 110.796 10.0742 112.27 10.0742C113.743 10.0742 115.051 10.4057 116.193 11.0688C117.353 11.7318 118.265 12.6434 118.928 13.8037C119.591 14.964 119.931 16.29 119.95 17.7818C119.95 19.2552 119.609 20.5721 118.928 21.7323C118.265 22.8926 117.353 23.8043 116.193 24.4673C115.051 25.1303 113.743 25.4618 112.27 25.4618ZM112.27 23.528C113.338 23.528 114.296 23.2794 115.143 22.7821C115.99 22.2849 116.653 21.6034 117.132 20.7378C117.611 19.8722 117.85 18.8869 117.85 17.7818C117.85 16.6768 117.611 15.6915 117.132 14.8259C116.653 13.9418 115.99 13.2512 115.143 12.7539C114.296 12.2567 113.338 12.008 112.27 12.008C111.202 12.008 110.244 12.2567 109.397 12.7539C108.55 13.2512 107.877 13.9418 107.38 14.8259C106.901 15.6915 106.662 16.6768 106.662 17.7818C106.662 18.8869 106.901 19.8722 107.38 20.7378C107.877 21.6034 108.55 22.2849 109.397 22.7821C110.244 23.2794 111.202 23.528 112.27 23.528Z" fill="#01B7E8"/>
<path d="M26.4761 7.14731L18.7087 0V2.7892C18.7087 2.7892 15.7451 2.61487 10.8338 2.7892C5.92247 2.96351 0.821689 3.4865 1.16915 8.80342C1.51662 14.1203 15.8556 22.5751 13.6079 19.0014C11.3603 15.4278 3.33784 7.14731 11.0233 7.14731H26.4761Z" fill="url(#paint0_linear_1200_561)"/>
<path d="M0 23.6441L7.67908 30.7914V28.0022C7.67908 28.0022 10.609 28.1765 15.4645 28.0022C20.32 27.8279 25.3629 27.3049 25.0194 21.988C24.6758 16.6711 10.4998 8.21633 12.7219 11.79C14.9441 15.3636 22.8753 23.6441 15.2772 23.6441H0Z" fill="url(#paint1_linear_1200_561)"/>
</g>
<defs>
<linearGradient id="paint0_linear_1200_561" x1="0.025787" y1="8.8798" x2="10.5025" y2="45.8196" gradientUnits="userSpaceOnUse">
<stop stop-color="#00D6FF"/>
<stop offset="1" stop-color="#0077B8"/>
</linearGradient>
<linearGradient id="paint1_linear_1200_561" x1="25.0308" y1="25.2448" x2="12.7315" y2="10.7541" gradientUnits="userSpaceOnUse">
<stop stop-color="#01D2FC"/>
<stop offset="1" stop-color="#0077B8"/>
</linearGradient>
<clipPath id="clip0_1200_561">
<rect width="120" height="31.9424" fill="white"/>
</clipPath>
</defs>
</svg>
