<svg width="56" height="56" viewBox="0 0 56 56" fill="none" xmlns="http://www.w3.org/2000/svg">
<g clip-path="url(#clip0_39_3963)">
<g clip-path="url(#clip1_39_3963)">
<mask id="mask0_39_3963" style="mask-type:luminance" maskUnits="userSpaceOnUse" x="6" y="6" width="45" height="44">
<path d="M6.5 6H50.5V50H6.5V6Z" fill="white"/>
</mask>
<g mask="url(#mask0_39_3963)">
<path fill-rule="evenodd" clip-rule="evenodd" d="M38.4275 32.3671C37.8812 32.0939 35.2027 30.7776 34.704 30.5942C34.2053 30.4109 33.8423 30.3229 33.4775 30.8692C33.1145 31.4137 32.0713 32.6402 31.7542 33.0032C31.4352 33.3681 31.118 33.4121 30.5735 33.1407C30.029 32.8657 28.2727 32.2919 26.1918 30.4366C24.573 28.9919 23.4785 27.2081 23.1613 26.6617C22.8442 26.1172 23.1265 25.8221 23.3997 25.5507C23.6453 25.3069 23.9442 24.9146 24.2173 24.5974C24.4905 24.2802 24.5803 24.0511 24.7618 23.6862C24.9452 23.3232 24.8535 23.0061 24.716 22.7329C24.5803 22.4597 23.4913 19.7776 23.0367 18.6867C22.5948 17.6252 22.1457 17.7701 21.812 17.7517C21.493 17.7371 21.13 17.7334 20.767 17.7334C20.404 17.7334 19.8137 17.8691 19.315 18.4154C18.8145 18.9599 17.4083 20.2781 17.4083 22.9602C17.4083 25.6406 19.359 28.2311 19.6322 28.5959C19.9053 28.9607 23.473 34.4626 28.9382 36.8221C30.2398 37.3831 31.2537 37.7186 32.0438 37.9679C33.3492 38.3841 34.5372 38.3254 35.4758 38.1842C36.5208 38.0284 38.6988 36.8661 39.1535 35.5937C39.6082 34.3214 39.6063 33.2306 39.4707 33.0032C39.335 32.7759 38.972 32.6402 38.4257 32.3671M28.4853 45.9392H28.478C25.232 45.9398 22.0455 45.0672 19.2527 43.4129L18.5927 43.0206L11.7323 44.8209L13.5638 38.1329L13.133 37.4472C11.3182 34.5586 10.3578 31.2153 10.3628 27.8039C10.3665 17.8122 18.4955 9.68323 28.4927 9.68323C30.8738 9.67599 33.2325 10.1421 35.4319 11.0545C37.6312 11.9669 39.6273 13.3074 41.304 14.9981C42.9915 16.6779 44.3291 18.6759 45.2392 20.8762C46.1493 23.0766 46.6139 25.4356 46.606 27.8167C46.6023 37.8084 38.4733 45.9392 28.4853 45.9392ZM43.9073 12.3947C41.8873 10.3621 39.4841 8.75024 36.8369 7.65259C34.1897 6.55494 31.3511 5.99326 28.4853 6.00006C16.4697 6.00006 6.687 15.7809 6.68333 27.8021C6.67742 31.6278 7.68103 35.3874 9.59283 38.7012L6.5 50.0001L18.0573 46.9677C21.255 48.7082 24.8374 49.6208 28.478 49.6224H28.4872C40.5028 49.6224 50.2855 39.8416 50.2892 27.8186C50.2981 24.9536 49.7389 22.1152 48.6438 19.4677C47.5486 16.8203 45.9394 14.4162 43.9092 12.3947" fill="#00CBF7"/>
</g>
</g>
</g>
<defs>
<clipPath id="clip0_39_3963">
<rect width="56" height="56" fill="white" transform="translate(0.5)"/>
</clipPath>
<clipPath id="clip1_39_3963">
<rect width="44" height="44" fill="white" transform="translate(6.5 6)"/>
</clipPath>
</defs>
</svg>
